<svg width="34" height="27" viewBox="0 0 34 27" fill="none" xmlns="http://www.w3.org/2000/svg">
<path fill-rule="evenodd" clip-rule="evenodd" d="M0 1.5C0 0.671573 0.671573 0 1.5 0H32.5C33.3284 0 34 0.671573 34 1.5C34 2.32843 33.3284 3 32.5 3H1.5C0.671573 3 0 2.32843 0 1.5Z" fill="#4D6740"/>
<path fill-rule="evenodd" clip-rule="evenodd" d="M0 9.5C0 8.67157 0.671573 8 1.5 8H22.5C23.3284 8 24 8.67157 24 9.5C24 10.3284 23.3284 11 22.5 11H1.5C0.671573 11 0 10.3284 0 9.5Z" fill="#4D6740"/>
<path fill-rule="evenodd" clip-rule="evenodd" d="M0 17.5C0 16.6716 0.671573 16 1.5 16H15.5C16.3284 16 17 16.6716 17 17.5C17 18.3284 16.3284 19 15.5 19H1.5C0.671573 19 0 18.3284 0 17.5Z" fill="#4D6740"/>
<path fill-rule="evenodd" clip-rule="evenodd" d="M0 25.5C0 24.6716 0.671573 24 1.5 24H12.5C13.3284 24 14 24.6716 14 25.5C14 26.3284 13.3284 27 12.5 27H1.5C0.671573 27 0 26.3284 0 25.5Z" fill="#4D6740"/>
<path d="M28.0606 6C28.7635 6 29.3333 6.67157 29.3333 7.5C29.3333 7.93839 29.4828 8.74506 29.9805 9.46499C30.4472 10.14 31.289 10.8397 32.8424 11.0062C33.5424 11.0812 34.0583 11.8108 33.9947 12.6358C33.9311 13.4608 33.312 14.0688 32.612 13.9938C31.2674 13.8498 30.1846 13.3949 29.3333 12.7507V22.5C29.3333 22.5708 29.3291 22.6404 29.3211 22.7085C29.3292 22.8048 29.3333 22.902 29.3333 23C29.3333 25.2091 26.5773 27 24 27C21.4227 27 19 25.2091 19 23C19 20.7909 21.4227 19 24 19C24.7638 19 26.1514 19.1573 26.7878 19.4362L26.7878 7.5C26.7878 7.39645 26.7967 7.29534 26.8137 7.1977C26.9324 6.51417 27.4455 6 28.0606 6Z" fill="#4D6740"/>
</svg>
