<svg width="34" height="27" viewBox="0 0 34 27" fill="none" xmlns="http://www.w3.org/2000/svg">
<path fill-rule="evenodd" clip-rule="evenodd" d="M0 1.5C0 0.671573 0.671573 0 1.5 0H32.5C33.3284 0 34 0.671573 34 1.5C34 2.32843 33.3284 3 32.5 3H1.5C0.671573 3 0 2.32843 0 1.5Z" fill="#4D6740"/>
<path fill-rule="evenodd" clip-rule="evenodd" d="M0 9.5C0 8.67157 0.671573 8 1.5 8H22.5C23.3284 8 24 8.67157 24 9.5C24 10.3284 23.3284 11 22.5 11H1.5C0.671573 11 0 10.3284 0 9.5Z" fill="#4D6740"/>
<path fill-rule="evenodd" clip-rule="evenodd" d="M0 17.5C0 16.6716 0.671573 16 1.5 16H15.5C16.3284 16 17 16.6716 17 17.5C17 18.3284 16.3284 19 15.5 19H1.5C0.671573 19 0 18.3284 0 17.5Z" fill="#4D6740"/>
<path fill-rule="evenodd" clip-rule="evenodd" d="M0 25.5C0 24.6716 0.671573 24 1.5 24H12.5C13.3284 24 14 24.6716 14 25.5C14 26.3284 13.3284 27 12.5 27H1.5C0.671573 27 0 26.3284 0 25.5Z" fill="#4D6740"/>
<path d="M32.543 19.6391C33.1981 20.0261 33.1981 20.9739 32.543 21.3609L24.5087 26.1085C23.8421 26.5024 23 26.0219 23 25.2476L23 15.7524C23 14.9781 23.8421 14.4976 24.5087 14.8915L32.543 19.6391Z" fill="#4D6740"/>
</svg>
